<svg xmlns="http://www.w3.org/2000/svg" viewBox="0 0 27.21 24.91"><defs><style>.cls-1{fill:#fff;}</style></defs><title>Asset 1</title><g id="Layer_2" data-name="Layer 2"><g id="Layer_1-2" data-name="Layer 1"><path class="cls-1" d="M13.6,21.51,9.13,23.39l-1.87.83-.43.15c-.5.18-1,.34-1.51.51H.64c-.67,0-.77-.15-.5-.74Q5.44,12.37,10.75.62A5.83,5.83,0,0,1,11.14,0h5a3.19,3.19,0,0,1,.26.38q5.37,11.88,10.74,23.77c.24.54,0,.78-.47.76-1.3,0-2.59,0-3.88,0a2.09,2.09,0,0,1-.57-.18l-.46-1v0l-.21-.45c-.63-1.43-1.24-2.87-1.87-4.31L14.13,6.4A1.13,1.13,0,0,0,14,6.18c-.12-.14-.28-.38-.39-.36a.74.74,0,0,0-.43.37c-.31.64-.59,1.3-.88,2L7.46,19.05c0,.11-.09.22-.16.41a3.15,3.15,0,0,0,.38-.1L13.16,17c.65-.28.73-.25,1,.4L15.31,20c.28.61.26.65-.36.93l-.18.09Z"/></g></g></svg>